<svg width="22" height="21" viewBox="0 0 22 21" fill="none" xmlns="http://www.w3.org/2000/svg">
<path d="M12.7582 18.5457C12.59 18.591 12.4184 18.6315 12.2481 18.6665C11.8025 18.7573 11.515 19.1921 11.606 19.6377C11.6111 19.6632 11.6175 19.6873 11.6247 19.7117C11.7463 20.1144 12.1571 20.3657 12.5774 20.28C12.7807 20.2383 12.9856 20.1899 13.1864 20.1359C13.6256 20.0178 13.8857 19.5658 13.7676 19.1266C13.6493 18.6868 13.1974 18.4274 12.7582 18.5457Z" fill="white"/>
<path d="M7.01816 18.087C6.85913 18.0163 6.70048 17.9397 6.54655 17.8591C6.1432 17.6489 5.64596 17.8051 5.43562 18.2084C5.3318 18.4068 5.31722 18.6281 5.37721 18.8268C5.43915 19.0316 5.58007 19.2125 5.78451 19.3192C5.96824 19.4149 6.15708 19.5064 6.34652 19.5909C6.76167 19.7762 7.2487 19.5901 7.43419 19.175C7.61969 18.7595 7.43336 18.2728 7.01816 18.087Z" fill="white"/>
<path d="M9.84987 18.811C9.67668 18.7971 9.50098 18.7774 9.32853 18.7532C8.87819 18.689 8.46151 19.0024 8.39752 19.4527C8.38016 19.5751 8.39079 19.6948 8.42422 19.8057C8.51397 20.1031 8.76935 20.3369 9.0973 20.3837C9.30248 20.4127 9.51133 20.4359 9.71772 20.4524C10.1712 20.4891 10.5682 20.1512 10.6047 19.698C10.6412 19.2445 10.3034 18.8475 9.84987 18.811Z" fill="white"/>
<path d="M15.4106 17.3173C15.2676 17.4158 15.1192 17.5113 14.9698 17.6015C14.6407 17.7998 14.5002 18.1921 14.6061 18.5438C14.6256 18.6082 14.6535 18.6714 14.6898 18.7319C14.9244 19.1214 15.4305 19.2465 15.8201 19.012C15.9977 18.9049 16.1741 18.7909 16.3442 18.674C16.7187 18.4161 16.8136 17.9034 16.5557 17.5289C16.298 17.1541 15.7851 17.0595 15.4106 17.3173Z" fill="white"/>
<path d="M18.6475 15.0904C18.2786 14.8244 17.764 14.9079 17.498 15.2765C17.3964 15.4175 17.2888 15.5574 17.1788 15.6916C16.9981 15.9122 16.9512 16.1981 17.0276 16.452C17.0734 16.603 17.1628 16.743 17.294 16.8506C17.6458 17.1387 18.1646 17.087 18.4527 16.7351C18.5841 16.5749 18.7124 16.4081 18.8335 16.24C19.0996 15.8711 19.0163 15.3566 18.6475 15.0904Z" fill="white"/>
<path d="M19.8001 12.0911C19.3637 11.9636 18.9065 12.2143 18.7792 12.6509C18.7302 12.8181 18.6757 12.986 18.6173 13.1498C18.5554 13.3222 18.5545 13.502 18.6038 13.6648C18.6766 13.9064 18.8589 14.1112 19.1143 14.2027C19.5424 14.3562 20.0137 14.1338 20.1675 13.7058C20.2373 13.5106 20.3022 13.3108 20.36 13.1119C20.4872 12.6756 20.2366 12.2182 19.8001 12.0911Z" fill="white"/>
<path d="M21.3452 6.72605L20.263 7.06231C19.4417 4.54552 17.7125 2.47735 15.372 1.22127C15.1364 1.09475 14.8974 0.978481 14.6555 0.871641C14.6537 0.870805 14.6523 0.870108 14.6507 0.869041C14.6406 0.864769 14.63 0.860776 14.6201 0.856411C12.4862 -0.0772879 10.1249 -0.254286 7.86125 0.358708C7.84347 0.36219 7.82568 0.365533 7.80813 0.370501C7.73254 0.391117 7.65625 0.413451 7.58099 0.435924C7.45743 0.473255 7.33313 0.513465 7.2112 0.5553C7.19676 0.560268 7.18316 0.566444 7.16914 0.572016C5.14851 1.27198 3.42779 2.5625 2.20023 4.2868C2.19586 4.29274 2.19094 4.29785 2.18681 4.30375C2.06683 4.47225 1.95061 4.64697 1.84084 4.82323C1.83397 4.83451 1.82826 4.84626 1.82171 4.85791C1.71223 5.03547 1.60701 5.21711 1.50737 5.40237C0.489955 7.29847 0.10183 9.41701 0.366632 11.5097C0.367235 11.5145 0.367792 11.5189 0.36821 11.5237C0.368628 11.527 0.369371 11.5305 0.37016 11.534C0.44213 12.093 0.560346 12.6503 0.72634 13.2007C1.16224 14.6458 1.8896 15.9453 2.88807 17.0632C3.19094 17.4023 3.71154 17.4315 4.05077 17.1287C4.38982 16.8257 4.41939 16.305 4.11629 15.966C3.61784 15.4082 3.2007 14.7955 2.8668 14.1355C2.86323 14.1273 2.86007 14.119 2.85617 14.1112C2.77765 13.9555 2.70304 13.7959 2.63395 13.6361C2.63358 13.6348 2.63316 13.6341 2.6326 13.6331C2.50686 13.339 2.39724 13.0362 2.30326 12.7252C1.22404 9.14687 2.60038 5.40251 5.45654 3.30899C5.4988 3.27825 5.541 3.24724 5.58367 3.21743C6.31693 2.70027 7.14397 2.29018 8.04911 2.01725C8.96002 1.74266 9.88118 1.62732 10.7833 1.65434C10.7979 1.65499 10.8121 1.65541 10.8265 1.65583C10.8816 1.6575 10.9365 1.66043 10.9913 1.66349C11.0134 1.66465 11.0355 1.66586 11.0576 1.66725C13.8707 1.84323 16.4648 3.40566 17.9211 5.86028C17.9219 5.86168 17.9225 5.86326 17.9235 5.86465C17.9451 5.9011 17.9661 5.9375 17.9873 5.97437C17.9898 5.9785 17.9925 5.98217 17.995 5.98639C18.2736 6.475 18.508 6.99787 18.6904 7.55119L17.6082 7.88764C17.3077 7.98101 17.2781 8.19725 17.5419 8.36821L19.8969 9.89359C20.1609 10.0647 20.4758 9.96672 20.5962 9.67648L21.672 7.08465C21.7923 6.79417 21.6455 6.63273 21.3452 6.72605Z" fill="white"/>
<path d="M7.49619 10.2498C6.70258 10.8377 6.16127 11.3477 5.87275 11.7797C5.5845 12.2117 5.41158 12.6729 5.3548 13.1632H10.32V11.8142H7.73573C7.88747 11.665 8.01948 11.5447 8.13194 11.4528C8.24444 11.3603 8.46704 11.1994 8.80032 10.969C9.36094 10.5736 9.74772 10.2106 9.96042 9.87997C10.1729 9.54965 10.2793 9.2029 10.2793 8.8399C10.2793 8.49867 10.1866 8.19045 10.0011 7.91534C9.81537 7.64051 9.5606 7.43659 9.23697 7.30384C8.91339 7.17127 8.46026 7.10474 7.87777 7.10474C7.31993 7.10474 6.88324 7.17462 6.56751 7.31433C6.25214 7.45381 6.00749 7.65417 5.83425 7.91534C5.66083 8.17703 5.54178 8.54064 5.47663 9.00635L7.13444 9.1404C7.18045 8.80475 7.27062 8.57031 7.40458 8.43766C7.53882 8.30491 7.71122 8.23846 7.92281 8.23846C8.12585 8.23846 8.29454 8.30291 8.42854 8.43162C8.56255 8.56005 8.62969 8.71527 8.62969 8.89687C8.62969 9.06491 8.56199 9.24223 8.42645 9.42926C8.29101 9.6161 7.98085 9.88977 7.49619 10.2498Z" fill="white"/>
<path d="M15.3136 13.1635V12.0501H16.0611V10.7659H15.3136V7.10498H13.8711L10.8563 10.6889V12.0501H13.8711V13.1635H15.3136ZM12.2783 10.7659L13.8711 8.89159V10.7659H12.2783Z" fill="white"/>
</svg>
