<svg width="24" height="24" viewBox="0 0 24 24" fill="none" xmlns="http://www.w3.org/2000/svg">
<path d="M13.7582 20.5457C13.59 20.591 13.4184 20.6315 13.2481 20.6665C12.8025 20.7573 12.515 21.1921 12.606 21.6377C12.6111 21.6632 12.6175 21.6873 12.6247 21.7117C12.7463 22.1144 13.1571 22.3657 13.5774 22.28C13.7807 22.2383 13.9856 22.1899 14.1864 22.1359C14.6256 22.0178 14.8857 21.5658 14.7676 21.1266C14.6493 20.6868 14.1974 20.4274 13.7582 20.5457Z" fill="white"/>
<path d="M8.01816 20.087C7.85913 20.0163 7.70048 19.9397 7.54655 19.8591C7.1432 19.6489 6.64596 19.8051 6.43562 20.2084C6.3318 20.4068 6.31722 20.6281 6.37721 20.8268C6.43915 21.0316 6.58007 21.2125 6.78451 21.3192C6.96824 21.4149 7.15708 21.5064 7.34652 21.5909C7.76167 21.7762 8.2487 21.5901 8.43419 21.175C8.61969 20.7595 8.43336 20.2728 8.01816 20.087Z" fill="white"/>
<path d="M10.8499 20.811C10.6767 20.7971 10.501 20.7774 10.3285 20.7532C9.87819 20.689 9.46151 21.0024 9.39752 21.4527C9.38016 21.5751 9.39079 21.6948 9.42422 21.8057C9.51397 22.1031 9.76935 22.3369 10.0973 22.3837C10.3025 22.4127 10.5113 22.4359 10.7177 22.4524C11.1712 22.4891 11.5682 22.1512 11.6047 21.698C11.6412 21.2445 11.3034 20.8475 10.8499 20.811Z" fill="white"/>
<path d="M16.4106 19.3173C16.2676 19.4158 16.1192 19.5113 15.9698 19.6015C15.6407 19.7998 15.5002 20.1921 15.6061 20.5438C15.6256 20.6082 15.6535 20.6714 15.6898 20.7319C15.9244 21.1214 16.4305 21.2465 16.8201 21.012C16.9977 20.9049 17.1741 20.7909 17.3442 20.674C17.7187 20.4161 17.8136 19.9034 17.5557 19.5289C17.298 19.1541 16.7851 19.0595 16.4106 19.3173Z" fill="white"/>
<path d="M19.6475 17.0904C19.2786 16.8244 18.764 16.9079 18.498 17.2765C18.3964 17.4175 18.2888 17.5574 18.1788 17.6916C17.9981 17.9122 17.9512 18.1981 18.0276 18.452C18.0734 18.603 18.1628 18.743 18.294 18.8506C18.6458 19.1387 19.1646 19.087 19.4527 18.7351C19.5841 18.5749 19.7124 18.4081 19.8335 18.24C20.0996 17.8711 20.0163 17.3566 19.6475 17.0904Z" fill="white"/>
<path d="M20.8001 14.0911C20.3637 13.9636 19.9065 14.2143 19.7792 14.6509C19.7302 14.8181 19.6757 14.986 19.6173 15.1498C19.5554 15.3222 19.5545 15.502 19.6038 15.6648C19.6766 15.9064 19.8589 16.1112 20.1143 16.2027C20.5424 16.3562 21.0137 16.1338 21.1675 15.7058C21.2373 15.5106 21.3022 15.3108 21.36 15.1119C21.4872 14.6756 21.2366 14.2182 20.8001 14.0911Z" fill="white"/>
<path d="M22.3452 8.72605L21.263 9.06231C20.4417 6.54552 18.7125 4.47735 16.372 3.22127C16.1364 3.09475 15.8974 2.97848 15.6555 2.87164C15.6537 2.8708 15.6523 2.87011 15.6507 2.86904C15.6406 2.86477 15.63 2.86078 15.6201 2.85641C13.4862 1.92271 11.1249 1.74571 8.86125 2.35871C8.84347 2.36219 8.82568 2.36553 8.80813 2.3705C8.73254 2.39112 8.65625 2.41345 8.58099 2.43592C8.45743 2.47326 8.33313 2.51347 8.2112 2.5553C8.19676 2.56027 8.18316 2.56644 8.16914 2.57202C6.14851 3.27198 4.42779 4.5625 3.20023 6.2868C3.19586 6.29274 3.19094 6.29785 3.18681 6.30375C3.06683 6.47225 2.95061 6.64697 2.84084 6.82323C2.83397 6.83451 2.82826 6.84626 2.82171 6.85791C2.71223 7.03547 2.60701 7.21711 2.50737 7.40237C1.48995 9.29847 1.10183 11.417 1.36663 13.5097C1.36724 13.5145 1.36779 13.5189 1.36821 13.5237C1.36863 13.527 1.36937 13.5305 1.37016 13.534C1.44213 14.093 1.56035 14.6503 1.72634 15.2007C2.16224 16.6458 2.8896 17.9453 3.88807 19.0632C4.19094 19.4023 4.71154 19.4315 5.05077 19.1287C5.38982 18.8257 5.41939 18.305 5.11629 17.966C4.61784 17.4082 4.2007 16.7955 3.8668 16.1355C3.86323 16.1273 3.86007 16.119 3.85617 16.1112C3.77765 15.9555 3.70304 15.7959 3.63395 15.6361C3.63358 15.6348 3.63316 15.6341 3.6326 15.6331C3.50686 15.339 3.39724 15.0362 3.30326 14.7252C2.22404 11.1469 3.60038 7.40251 6.45654 5.30899C6.4988 5.27825 6.541 5.24724 6.58367 5.21743C7.31693 4.70027 8.14397 4.29018 9.04911 4.01725C9.96002 3.74266 10.8812 3.62732 11.7833 3.65434C11.7979 3.65499 11.8121 3.65541 11.8265 3.65583C11.8816 3.6575 11.9365 3.66043 11.9913 3.66349C12.0134 3.66465 12.0355 3.66586 12.0576 3.66725C14.8707 3.84323 17.4648 5.40566 18.9211 7.86028C18.9219 7.86168 18.9225 7.86326 18.9235 7.86465C18.9451 7.9011 18.9661 7.9375 18.9873 7.97437C18.9898 7.9785 18.9925 7.98217 18.995 7.98639C19.2736 8.475 19.508 8.99787 19.6904 9.55119L18.6082 9.88764C18.3077 9.98101 18.2781 10.1972 18.5419 10.3682L20.8969 11.8936C21.1609 12.0647 21.4758 11.9667 21.5962 11.6765L22.672 9.08465C22.7923 8.79417 22.6455 8.63273 22.3452 8.72605Z" fill="white"/>
<path d="M8.49619 12.2498C7.70258 12.8377 7.16127 13.3477 6.87275 13.7797C6.5845 14.2117 6.41158 14.6729 6.3548 15.1632H11.32V13.8142H8.73573C8.88747 13.665 9.01948 13.5447 9.13194 13.4528C9.24444 13.3603 9.46704 13.1994 9.80032 12.969C10.3609 12.5736 10.7477 12.2106 10.9604 11.88C11.1729 11.5497 11.2793 11.2029 11.2793 10.8399C11.2793 10.4987 11.1866 10.1905 11.0011 9.91534C10.8154 9.64051 10.5606 9.43659 10.237 9.30384C9.91339 9.17127 9.46026 9.10474 8.87777 9.10474C8.31993 9.10474 7.88324 9.17462 7.56751 9.31433C7.25214 9.45381 7.00749 9.65417 6.83425 9.91534C6.66083 10.177 6.54178 10.5406 6.47663 11.0064L8.13444 11.1404C8.18045 10.8047 8.27062 10.5703 8.40458 10.4377C8.53882 10.3049 8.71122 10.2385 8.92281 10.2385C9.12585 10.2385 9.29454 10.3029 9.42854 10.4316C9.56255 10.5601 9.62969 10.7153 9.62969 10.8969C9.62969 11.0649 9.56199 11.2422 9.42645 11.4293C9.29101 11.6161 8.98085 11.8898 8.49619 12.2498Z" fill="white"/>
<path d="M16.3136 15.1635V14.0501H17.0611V12.7659H16.3136V9.10498H14.8711L11.8563 12.6889V14.0501H14.8711V15.1635H16.3136ZM13.2783 12.7659L14.8711 10.8916V12.7659H13.2783Z" fill="white"/>
</svg>
