<svg width="51" height="50" viewBox="0 0 51 50" fill="none" xmlns="http://www.w3.org/2000/svg">
<path d="M19.3456 41.4546C12.4743 39.8974 7.34253 32.5804 7.28614 21.9168C7.22193 9.74035 14.3543 0 23.6254 0C27.2033 0 29.7141 0.538396 32.4747 2.72348C32.8322 3.00596 33.6017 3.73629 33.9401 4.05815C34.5352 4.62411 35.415 4.52863 35.8297 2.82191L36.1576 0.896671H37.1406V13.7581H35.7039V13.0318C35.7039 12.2808 35.5989 11.5337 35.3924 10.8201C33.7275 5.07097 30.5652 1.24707 24.9562 1.24707C18.3756 1.24707 12.5402 7.02179 12.8873 21.5014C12.9749 29.0931 15.7269 35.8787 19.3456 39.5992V41.4546ZM31.9542 29.0035V40.1799H32.0791C34.1639 40.1799 36.0622 39.1366 37.4868 37.4259V26.9139C37.4868 25.9779 38.1565 25.219 38.9816 25.219H39.5499V23.9729H28.214V25.219H28.6183C30.4602 25.219 31.9542 26.9129 31.9542 29.0035ZM31.4145 10.3673V9.57991H26.1318H21.3887H17.1089V10.3673C17.1089 10.3673 21.2352 10.389 21.3887 13.6371V45.9822C21.3887 46.2617 21.3367 46.5383 21.2334 46.7913C20.2218 49.2835 17.1037 49.1466 17.1037 49.1466V50H21.3887H22.9313H26.1318V14.5121C26.1318 12.2227 27.9702 10.4333 29.9874 10.4333L31.4145 10.3673ZM41.8681 43.4979C41.6355 46.4684 39.4362 48.7972 36.7571 48.7972H30.4116V50H43.7143V49.6555V48.7972V42.6022C43.7151 42.6022 42.9005 43.2833 41.8681 43.4979Z" fill="white"/>
</svg>
